<?xml version="1.0" standalone="no"?>
<!DOCTYPE svg PUBLIC "-//W3C//DTD SVG 20010904//EN"
 "http://www.w3.org/TR/2001/REC-SVG-20010904/DTD/svg10.dtd">
<svg version="1.0" xmlns="http://www.w3.org/2000/svg"
 width="16.000000pt" height="16.000000pt" viewBox="0 0 16.000000 16.000000"
 preserveAspectRatio="xMidYMid meet">
<metadata>
Created by potrace 1.11, written by Peter Selinger 2001-2013
</metadata>
<g transform="translate(0.000000,16.000000) scale(0.018182,-0.018182)"
fill="#000000" stroke="none">
<path d="M0 440 l0 -440 440 0 440 0 0 440 0 440 -440 0 -440 0 0 -440z m460
217 c0 -32 -1 -33 -35 -29 -31 4 -35 8 -35 33 0 26 3 29 35 29 33 0 35 -2 35
-33z m-162 -79 c-3 -29 -7 -33 -35 -36 -32 -3 -33 -2 -33 32 0 35 1 36 36 36
34 0 35 -1 32 -32z m82 -4 c0 -34 -1 -35 -32 -32 -29 3 -33 7 -36 36 -3 31 -2
32 32 32 35 0 36 -1 36 -36z m80 0 c0 -34 -1 -35 -32 -32 -54 5 -53 68 2 68
28 0 30 -3 30 -36z m264 1 c9 -13 16 -31 16 -40 0 -11 12 -15 50 -15 37 0 50
-4 50 -14 0 -22 -40 -46 -77 -46 -29 0 -35 -5 -54 -45 -65 -137 -207 -217
-384 -213 -70 1 -74 2 -30 7 l50 6 -40 40 -40 40 -65 -11 -65 -11 38 -22 c20
-13 37 -25 37 -27 0 -24 -93 53 -115 96 -8 15 -17 50 -21 78 l-7 52 295 0
c332 0 335 1 318 61 -11 38 0 89 19 89 5 0 16 -11 25 -25z m-509 -80 c0 -27
-4 -30 -32 -33 -32 -3 -33 -2 -33 33 0 35 1 36 33 33 28 -3 32 -6 32 -33z m85
0 c0 -33 -2 -35 -35 -35 -33 0 -35 2 -35 35 0 33 2 35 35 35 33 0 35 -2 35
-35z m80 0 c0 -33 -2 -35 -35 -35 -33 0 -35 2 -35 35 0 33 2 35 35 35 33 0 35
-2 35 -35z m80 -1 c0 -34 -1 -35 -32 -32 -54 5 -53 68 2 68 28 0 30 -3 30 -36z
m80 1 c0 -32 -2 -35 -30 -35 -28 0 -30 3 -30 35 0 32 2 35 30 35 28 0 30 -3
30 -35z"/>
<path d="M291 336 c-14 -17 -7 -36 14 -36 22 0 29 20 13 36 -13 13 -16 13 -27
0z m19 -16 c0 -5 -4 -10 -10 -10 -5 0 -10 5 -10 10 0 6 5 10 10 10 6 0 10 -4
10 -10z"/>
</g>
</svg>
